<?xml version="1.0" standalone="no"?><!DOCTYPE svg PUBLIC "-//W3C//DTD SVG 1.1//EN" "http://www.w3.org/Graphics/SVG/1.1/DTD/svg11.dtd"><svg t="1660207303027" class="icon" viewBox="0 0 1024 1024" version="1.1" xmlns="http://www.w3.org/2000/svg" p-id="3384" width="200" height="200" xmlns:xlink="http://www.w3.org/1999/xlink"><defs><style type="text/css">@font-face { font-family: feedback-iconfont; src: url("//at.alicdn.com/t/font_1031158_u69w8yhxdu.woff2?t=1630033759944") format("woff2"), url("//at.alicdn.com/t/font_1031158_u69w8yhxdu.woff?t=1630033759944") format("woff"), url("//at.alicdn.com/t/font_1031158_u69w8yhxdu.ttf?t=1630033759944") format("truetype"); }
</style></defs><path d="M497.208889 250.88c4.551111 0 9.671111-0.568889 14.791111-0.568889 34.702222 0 68.266667 6.826667 100.124444 19.911111 6.257778 2.275556 11.946667 5.12 18.204445 8.533334-6.257778 11.946667-10.24 25.6-10.24 39.822222 0 47.217778 38.115556 85.333333 85.333333 85.333333s85.333333-38.115556 85.333334-85.333333-38.115556-85.333333-85.333334-85.333334c-15.36 0-29.582222 3.982222-42.097778 11.377778-10.808889-6.257778-22.186667-11.946667-33.564444-16.497778C592.213333 212.764444 552.96 204.8 512 204.8c-5.688889 0-11.377778 0-17.066667 0.568889-12.515556 0.568889-22.186667 11.377778-21.617777 23.893333 1.137778 12.515556 11.377778 22.186667 23.893333 21.617778zM745.244444 318.577778c0 22.186667-17.635556 39.822222-39.822222 39.822222s-39.822222-17.635556-39.822222-39.822222 17.635556-39.822222 39.822222-39.822222 39.822222 17.635556 39.822222 39.822222zM403.911111 750.364444c-52.337778-23.893333-96.142222-64.853333-122.88-116.053333-5.688889-11.377778-19.911111-15.36-30.72-9.671111-11.377778 5.688889-15.36 19.911111-9.671111 30.72 31.857778 59.733333 83.057778 108.088889 144.497778 135.964444 2.844444 1.137778 6.257778 2.275556 9.671111 2.275556 8.533333 0 17.066667-5.12 20.48-13.084444 5.12-11.377778 0-25.031111-11.377778-30.151112zM796.444444 489.244444c-12.515556 0-22.755556 10.24-22.755555 22.755556 0 144.497778-117.191111 261.688889-261.688889 261.688889-11.946667 0-23.893333-0.568889-35.84-2.275556-12.515556-1.706667-23.893333 6.826667-25.6 19.342223-1.706667 12.515556 6.826667 23.893333 19.342222 25.6 13.653333 1.706667 27.875556 2.844444 42.097778 2.844444 169.528889 0 307.2-137.671111 307.2-307.2 0-12.515556-10.24-22.755556-22.755556-22.755556zM252.586667 548.408889c-1.137778-11.946667-2.275556-23.893333-2.275556-36.408889 0-43.804444 10.808889-87.04 31.857778-124.586667 6.257778-10.808889 1.706667-25.031111-9.102222-30.72-10.808889-6.257778-25.031111-1.706667-30.72 9.102223C217.884444 410.168889 204.8 460.8 204.8 512c0 14.222222 1.137778 29.013333 2.844444 43.235556 1.706667 11.377778 11.377778 19.342222 22.755556 19.342222h3.413333c11.946667-1.706667 21.048889-13.653333 18.773334-26.168889zM309.475556 334.506667c5.688889 0 11.946667-2.275556 15.928888-6.826667 27.875556-27.875556 62.008889-50.062222 98.986667-63.146667 11.946667-3.982222 18.204444-17.066667 13.653333-29.013333-3.982222-11.946667-17.066667-18.204444-29.013333-13.653333-43.804444 15.36-83.626667 40.96-116.622222 73.955555-9.102222 9.102222-8.533333 23.324444 0 32.426667 5.688889 4.551111 11.377778 6.257778 17.066667 6.257778z" p-id="3385" fill="#ffffff"></path><path d="M512 665.6c48.355556 0 92.16-22.755556 120.035556-58.026667l35.84 21.048889c3.413333 2.275556 7.395556 2.844444 11.377777 2.844445 7.964444 0 15.36-3.982222 19.911111-11.377778 6.257778-10.808889 2.275556-25.031111-8.533333-31.288889l-35.84-21.048889c6.826667-17.635556 10.808889-36.408889 10.808889-56.32 0-84.764444-68.835556-153.6-153.6-153.6-48.355556 0-92.16 22.755556-120.035556 58.026667l-35.84-21.048889c-10.808889-6.257778-25.031111-2.844444-31.288888 8.533333-6.257778 10.808889-2.275556 25.031111 8.533333 31.288889l35.84 21.048889C362.382222 473.315556 358.4 492.088889 358.4 512c0 84.764444 68.835556 153.6 153.6 153.6z m0-45.511111c-59.733333 0-108.088889-48.355556-108.088889-108.088889 0-11.377778 1.706667-22.755556 5.12-32.995556l182.613333 105.813334c-19.342222 21.617778-47.786667 35.271111-79.644444 35.271111z m0-216.177778c59.733333 0 108.088889 48.355556 108.088889 108.088889 0 11.377778-1.706667 22.755556-5.12 32.995556L431.786667 439.751111C451.697778 417.564444 480.142222 403.911111 512 403.911111z" p-id="3386" fill="#ffffff"></path></svg>